# AST/ASF file generated using VICON BodyLanguage
# -----------------------------------------------
:version 1.10
:name VICON
:units
  mass 1.0
  length 0.45
  angle deg
:documentation
   .ast/.asf automatically generated from VICON data using
   VICON BodyBuilder and BodyLanguage model FoxedUp or BRILLIANT.MOD
:root
   order TX TY TZ RX RY RZ
   axis XYZ
   position 0 0 0  
   orientation 0 0 0 
:bonedata
  begin
     id 1 
     name lhipjoint
     direction 0.624716 -0.669793 0.401383 
     length 2.38238 
     axis 0 0 0  XYZ
  end
  begin
     id 2 
     name lfemur
     direction 0.34202 -0.939693 0  
     length 6.4574  
     axis 0 0 20  XYZ
    dof rx ry rz
    limits (-160.0 20.0)
           (-70.0 70.0)
           (-60.0 70.0)
  end
  begin
     id 3 
     name ltibia
     direction 0.34202 -0.939693 0   
     length 7.68739   
     axis 0 0 20   XYZ
    dof rx
    limits (-10.0 170.0)
  end
  begin
     id 4 
     name lfoot
     direction 0.0681309 -0.187188 0.979959   
     length 2.46615   
     axis -90 7.62852e-016 20   XYZ
    dof rx rz
    limits (-45.0 90.0)
           (-70.0 20.0)
  end
  begin
     id 5 
     name ltoes
     direction 1.53566e-011 -4.21819e-011 1   
     length 1.2376   
     axis -90 7.62852e-016 20   XYZ
    dof rx
    limits (-90.0 20.0)
  end
  begin
     id 6 
     name rhipjoint
     direction -0.644473 -0.655875 0.393043   
     length 2.43293  
     axis 0 0 0  XYZ 
  end
  begin
     id 7 
     name rfemur
     direction -0.34202 -0.939693 0   
     length 6.7025   
     axis 0 0 -20   XYZ
    dof rx ry rz
    limits (-160.0 20.0)
           (-70.0 70.0)
           (-70.0 60.0)
  end
  begin
     id 8 
     name rtibia
     direction -0.34202 -0.939693 0   
     length 7.80547   
     axis 0 0 -20   XYZ
    dof rx
    limits (-10.0 170.0)
 end
 begin
     id 9 
     name rfoot
     direction -0.0756734 -0.207911 0.975216   
     length 2.40315  
     axis -90 -7.62852e-016 -20   XYZ
    dof rx rz
    limits (-45.0 90.0)
           (-20.0 70.0)
  end
  begin
     id 10 
     name rtoes
     direction -1.5353e-011 -4.21879e-011 1   
     length 1.20477   
     axis -90 -7.62852e-016 -20   XYZ
    dof rx
    limits (-90.0 20.0)
  end
  begin
     id 11 
     name lowerback
     direction 0.0160353 0.987463 -0.157037   
     length 2.18572   
     axis 0 0 0   XYZ
    dof rx ry rz
    limits (-20.0 45.0)
           (-30.0 30.0)
           (-30.0 30.0)
  end
  begin
     id 12 
     name upperback
     direction -0.00499661 0.999756 0.0215076   
     length 2.18016   
     axis 0 0 0   XYZ
    dof rx ry rz
    limits (-20.0 45.0)
           (-30.0 30.0)
           (-30.0 30.0)
  end
  begin
     id 13 
     name thorax
     direction -0.00921346 0.995333 0.0960619   
     length 2.24923   
     axis 0 0 0   XYZ
    dof rx ry rz
    limits (-20.0 45.0)
           (-30.0 30.0)
           (-30.0 30.0)
  end
  begin
     id 14 
     name lowerneck
     direction 0.0274184 0.991181 0.12965   
     length 1.70911   
     axis 0 0 0   XYZ
    dof rx ry rz
    limits (-20.0 45.0)
           (-30.0 30.0)
           (-30.0 30.0)
  end
  begin
     id 15 
     name upperneck
     direction 0.0015627 0.999959 -0.00893559   
     length 1.69312   
     axis 0 0 0   XYZ
    dof rx ry rz
    limits (-20.0 45.0)
           (-30.0 30.0)
           (-30.0 30.0)
  end
  begin
     id 16
     name head
     direction -0.00230242 0.999856 -0.0168327  
     length 1.80241  
     axis 0 0 0   XYZ
    dof rx ry rz
    limits (-20.0 45.0)
           (-30.0 30.0)
           (-30.0 30.0)
  end
  begin
     id 17 
     name lclavicle
     direction 0.955523 0.290741 -0.0494489  
     length 3.84275  
     axis 0 0 0   XYZ
    dof ry rz
    limits (-20.0 10.0)
           (0.0 20.0)
  end
  begin
     id 18 
     name lhumerus
     direction 1 -4.48967e-011 -3.18382e-028   
     length 5.17714   
     axis 180 -30 -90   XYZ
    dof rx ry rz
    limits (-60.0 90.0)
           (-90.0 90.0)
           (-90.0 90.0)
  end
  begin
     id 19
     name lradius
     direction 1 -4.48968e-011 -2.22911e-027   
     length 3.43679   
     axis 180 -30 -90   XYZ
    dof rx
    limits (-10.0 170.0)
  end
  begin
     id 20
     name lwrist
     direction 1 -4.48951e-011 -6.32245e-027   
     length 1.7184   
     axis 3.57107e-015 90 90   XYZ
    dof ry
    limits (-180.0 0.0)
 end
  begin
     id 21 
     name lhand
     direction 1 -4.48924e-011 -1.26431e-026   
     length 0.573117   
     axis 8.06912e-015 90 90   XYZ
    dof rx rz
    limits (-90.0 90.0)
           (-45.0 45.0)
  end
  begin
     id 22 
     name lfingers
     direction 1 -4.49001e-011 -2.52965e-026   
     length 0.462062   
     axis 1.61381e-014 90 90   XYZ
    dof rx
    limits (0.0 90.0)
  end
  begin
     id 23
     name lthumb
     direction 0.707107 -6.35008e-011 0.707107   
     length 0.663431   
     axis -90 45 -1.62303e-014   XYZ
    dof rx rz
    limits (-45.0 45.0)
           (-45.0 45.0)
  end
  begin
     id 24 
     name rclavicle
     direction -0.963917 0.256881 -0.0698287   
     length 3.73057  
     axis 0 0 0   XYZ 
    dof ry rz
    limits (-10.0 20.0)
           (-20.0 0.0)
  end
  begin
     id 25 
     name rhumerus
     direction -1 -4.48962e-011 -2.73982e-027  
     length 5.23908   
     axis 180 30 90   XYZ
    dof rx ry rz
    limits (-90.0 60.0)
           (-90.0 90.0)
           (-90.0 90.0)
  end
  begin
     id 26 
     name rradius
     direction -1 -4.48968e-011 -4.33218e-027   
     length 3.46485   
     axis 180 30 90   XYZ
    dof rx
    limits (-10.0 170.0)
  end
  begin
     id 27 
     name rwrist
     direction -1 -4.48989e-011 -6.32372e-027   
     length 1.73243   
     axis 3.57107e-015 -90 -90   XYZ
    dof ry
    limits (-180.0 0.0)
  end
  begin
     id 28
     name rhand
     direction -1 -4.48948e-011 -1.26448e-026   
     length 0.608752   
     axis 8.06912e-015 -90 -90   XYZ
    dof rx rz
    limits (-90.0 90.0)
           (-45.0 45.0)
  end
  begin
     id 29
     name rfingers
     direction -1 -4.48962e-011 -2.52913e-026   
     length 0.490792   
     axis 1.61381e-014 -90 -90   XYZ
    dof rx
    limits (0.0 90.0)
  end
  begin
     id 30
     name rthumb
     direction -0.707107 -6.34878e-011 0.707107   
     length 0.704682   
     axis -90 -45 1.62303e-014   XYZ
    dof rx rz
    limits (-45.0 45.0)
           (-45.0 45.0)
  end
:hierarchy
  begin
    root lhipjoint rhipjoint lowerback
    lhipjoint lfemur
    lfemur ltibia
    ltibia lfoot
    lfoot ltoes
    rhipjoint rfemur
    rfemur rtibia
    rtibia rfoot
    rfoot rtoes
    lowerback upperback
    upperback thorax
    thorax lowerneck lclavicle rclavicle
    lowerneck upperneck
    upperneck head
    lclavicle lhumerus
    lhumerus lradius
    lradius lwrist
    lwrist lhand lthumb
    lhand lfingers
    rclavicle rhumerus
    rhumerus rradius
    rradius rwrist
    rwrist rhand rthumb
    rhand rfingers
  end

#!OML:ASF G:\JayActor3\Patient Classification 1\Patient 1\Session 6\male.ASF
:FULLY-SPECIFIED
:DEGREES
406
root 44.6337 15.9229 12.9408 183.816 -47.4043 -176.844
lowerback 8.61724 -1.23204 4.11769
upperback 11.1902 -2.45827 -1.46766
thorax 6.76775 -1.27492 -3.83157
lowerneck 6.51721 0.846347 0.961747
upperneck -7.81069 1.4101 2.72658
head -3.71025 0.518576 0.659266
rclavicle 1.86858e-014 -5.84427e-014
rhumerus -23.0469 14.4735 -90.5441
rradius 68.4685
rwrist 0.551035
rhand -22.3909 -6.92059
rfingers 7.12502
rthumb 4.03132 -36.8622
lclavicle 1.86858e-014 -5.84427e-014
lhumerus -18.802 -2.02016 84.6055
lradius 51.0833
lwrist 19.2347
lhand -42.0941 -6.38882
lfingers 7.12502
lthumb -14.9858 23.0489
rfemur -31.6312 5.06882 29.3236
rtibia 41.5264
rfoot -15.5036 -11.3049
rtoes 7.96638
lfemur 4.35428 11.2938 -13.3303
ltibia 38.7728
lfoot -0.929925 -2.47765
ltoes -8.49462
407
root 44.6158 15.9193 12.9141 183.879 -47.4525 -176.855
lowerback 8.6692 -1.22746 4.15186
upperback 11.2119 -2.45522 -1.43081
thorax 6.76403 -1.27403 -3.81077
lowerneck 6.52407 0.824831 0.979915
upperneck -7.89713 1.38029 2.67394
head -3.74093 0.504063 0.640514
rclavicle -1.98785e-014 -2.22639e-014
rhumerus -22.9535 14.4791 -90.4256
rradius 68.5477
rwrist 0.594881
rhand -22.3762 -6.901
rfingers 7.12502
rthumb 4.04548 -36.8423
lclavicle -1.98785e-014 -2.22639e-014
lhumerus -18.8825 -2.08863 84.6569
lradius 51.0744
lwrist 19.4619
lhand -41.8279 -6.21472
lfingers 7.12502
lthumb -14.7294 23.242
rfemur -31.5969 5.03297 29.3491
rtibia 41.5896
rfoot -15.6917 -11.2615
rtoes 7.93509
lfemur 3.92548 11.3714 -13.2641
ltibia 39.526
lfoot -0.602543 -2.46213
ltoes -8.07478
408
root 44.5984 15.9155 12.888 183.937 -47.4906 -176.876
lowerback 8.73792 -1.21746 4.17204
upperback 11.2358 -2.44576 -1.39335
thorax 6.75422 -1.27156 -3.78117
lowerneck 6.53908 0.802918 0.990095
upperneck -7.98792 1.3496 2.62409
head -3.77492 0.48915 0.624139
rclavicle 6.75868e-015 -3.57812e-015
rhumerus -22.8556 14.4799 -90.3021
rradius 68.619
rwrist 0.66403
rhand -22.3627 -6.89109
rfingers 7.12502
rthumb 4.05855 -36.8322
lclavicle 6.75868e-015 -3.57812e-015
lhumerus -18.9528 -2.16122 84.7098
lradius 51.0566
lwrist 19.6553
lhand -41.5213 -5.98915
lfingers 7.12502
lthumb -14.434 23.4889
rfemur -31.5525 5.00873 29.3674
rtibia 41.6611
rfoot -15.8978 -11.219
rtoes 7.94418
lfemur 3.4948 11.4553 -13.2033
ltibia 40.3023
lfoot -0.258244 -2.44627
ltoes -7.65198
409
root 44.5818 15.9117 12.8627 183.986 -47.5271 -176.888
lowerback 8.81853 -1.20664 4.19504
upperback 11.2561 -2.43448 -1.35198
thorax 6.73411 -1.26845 -3.74848
lowerneck 6.56098 0.779601 0.999875
upperneck -8.07983 1.31666 2.56839
head -3.81066 0.473424 0.605997
rclavicle 7.95139e-016 -4.45278e-014
rhumerus -22.7573 14.4754 -90.1757
rradius 68.6832
rwrist 0.760208
rhand -22.3516 -6.88943
rfingers 7.12502
rthumb 4.0692 -36.8303
lclavicle 7.95139e-016 -4.45278e-014
lhumerus -19.0168 -2.23287 84.7613
lradius 51.0309
lwrist 19.7999
lhand -41.1089 -5.59394
lfingers 7.12502
lthumb -14.0366 23.9121
rfemur -31.5144 4.99983 29.3918
rtibia 41.7477
rfoot -16.132 -11.1855
rtoes 8.00197
lfemur 3.0413 11.5384 -13.1342
ltibia 41.1039
lfoot 0.116643 -2.42574
ltoes -7.14679
410
root 44.5664 15.9084 12.8366 184.21 -47.5696 -177.096
lowerback 8.87211 -1.18829 4.06565
upperback 11.2662 -2.41616 -1.33994
thorax 6.71956 -1.27081 -3.6622
lowerneck 6.60493 0.75457 1.00358
upperneck -8.1844 1.28203 2.51931
head -3.85546 0.456427 0.591238
rclavicle 3.57812e-014 -2.14687e-014
rhumerus -22.662 14.4588 -90.0512
rradius 68.739
rwrist 0.87699
rhand -22.3356 -6.89758
rfingers 7.12502
rthumb 4.08469 -36.8382
lclavicle 3.57812e-014 -2.14687e-014
lhumerus -19.0815 -2.31017 84.8081
lradius 51.0079
lwrist 19.8928
lhand -40.639 -5.06828
lfingers 7.12502
lthumb -13.5837 24.4686
rfemur -31.5324 4.99573 29.2683
rtibia 41.8724
rfoot -16.4058 -11.1546
rtoes 8.12174
lfemur 2.53098 11.595 -13.2283
ltibia 41.9145
lfoot 0.532608 -2.37415
ltoes -6.51538
411
root 44.5519 15.9054 12.8102 184.56 -47.6187 -177.441
lowerback 8.9003 -1.16524 3.83111
upperback 11.2687 -2.3938 -1.34713
thorax 6.71189 -1.27717 -3.53812
lowerneck 6.6464 0.728461 1.01445
upperneck -8.2831 1.24578 2.46275
head -3.89764 0.438934 0.572782
rclavicle -4.37326e-015 -3.45885e-014
rhumerus -22.5701 14.4292 -89.927
rradius 68.7922
rwrist 1.00856
rhand -22.3228 -6.90716
rfingers 7.12502
rthumb 4.09709 -36.8475
lclavicle -4.37326e-015 -3.45885e-014
lhumerus -19.1513 -2.39191 84.8545
lradius 50.9953
lwrist 19.9638
lhand -40.1534 -4.50495
lfingers 7.12502
lthumb -13.1157 25.0626
rfemur -31.6029 5.00142 29.0421
rtibia 42.0377
rfoot -16.7148 -11.135
rtoes 8.29022
lfemur 1.96761 11.6323 -13.4358
ltibia 42.7366
lfoot 0.993486 -2.3055
ltoes -5.89576
412
root 44.538 15.9028 12.7836 185.038 -47.6727 -177.932
lowerback 8.90696 -1.1392 3.48899
upperback 11.2659 -2.37014 -1.3755
thorax 6.71154 -1.28919 -3.37678
lowerneck 6.69683 0.700082 1.02288
upperneck -8.38631 1.20647 2.40668
head -3.94333 0.41991 0.55509
rclavicle -4.77083e-014 5.56597e-014
rhumerus -22.4776 14.3923 -89.803
rradius 68.8421
rwrist 1.14301
rhand -22.3173 -6.91591
rfingers 7.12502
rthumb 4.1024 -36.8562
lclavicle -4.77083e-014 5.56597e-014
lhumerus -19.2281 -2.46668 84.9009
lradius 51.0011
lwrist 20.0161
lhand -39.7055 -3.96433
lfingers 7.12502
lthumb -12.6839 25.6305
rfemur -31.7208 5.0112 28.7057
rtibia 42.2429
rfoot -17.0464 -11.1246
rtoes 8.47558
lfemur 1.3555 11.6407 -13.7684
ltibia 43.5698
lfoot 1.4993 -2.21291
ltoes -5.28379
413
root 44.5246 15.9004 12.7571 185.564 -47.729 -178.474
lowerback 8.90381 -1.11181 3.10689
upperback 11.2599 -2.34567 -1.40896
thorax 6.71396 -1.30323 -3.19872
lowerneck 6.73896 0.670116 1.04163
upperneck -8.48502 1.16504 2.34397
head -3.98572 0.399954 0.53347
rclavicle -6.2816e-014 -4.77083e-015
rhumerus -22.388 14.3471 -89.6781
rradius 68.8912
rwrist 1.27223
rhand -22.3176 -6.90604
rfingers 7.12502
rthumb 4.10207 -36.8463
lclavicle -6.2816e-014 -4.77083e-015
lhumerus -19.3107 -2.5332 84.9489
lradius 51.0264
lwrist 20.0612
lhand -39.3243 -3.49359
lfingers 7.12502
lthumb -12.3163 26.1237
rfemur -31.8606 5.03324 28.3297
rtibia 42.4597
rfoot -17.375 -11.1368
rtoes 8.63635
lfemur 0.696882 11.6314 -14.1471
ltibia 44.4368
lfoot 2.04447 -2.11426
ltoes -4.73556
414
root 44.5112 15.898 12.7318 186.031 -47.7845 -178.951
lowerback 8.90938 -1.08777 2.77887
upperback 11.2602 -2.3252 -1.43254
thorax 6.71782 -1.31613 -3.04039
lowerneck 6.78372 0.64257 1.04244
upperneck -8.58879 1.12629 2.29622
head -4.03088 0.381098 0.51989
rclavicle 8.46823e-014 3.33958e-014
rhumerus -22.2866 14.2988 -89.5532
rradius 68.9345
rwrist 1.38801
rhand -22.3242 -6.88843
rfingers 7.12502
rthumb 4.09569 -36.8288
lclavicle 8.46823e-014 3.33958e-014
lhumerus -19.3855 -2.58437 84.9939
lradius 51.0658
lwrist 20.1021
lhand -39.0241 -3.11542
lfingers 7.12502
lthumb -12.0269 26.519
rfemur -31.9825 5.0709 28.0002
rtibia 42.6589
rfoot -17.6754 -11.1747
rtoes 8.7444
lfemur 0.00948376 11.6129 -14.479
ltibia 45.3569
lfoot 2.62039 -2.02115
ltoes -4.3004
415
root 44.4976 15.8955 12.7079 186.357 -47.8437 -179.27
lowerback 8.94225 -1.06889 2.57359
upperback 11.2669 -2.3089 -1.43279
thorax 6.71199 -1.32386 -2.92536
lowerneck 6.82098 0.612259 1.05264
upperneck -8.68531 1.08393 2.24369
head -4.07191 0.360563 0.50324
rclavicle -1.07741e-013 -4.77083e-015
rhumerus -22.1831 14.2438 -89.4301
rradius 68.9762
rwrist 1.48401
rhand -22.3353 -6.8685
rfingers 7.12502
rthumb 4.085 -36.8091
lclavicle -1.07741e-013 -4.77083e-015
lhumerus -19.4605 -2.62579 85.0368
lradius 51.1216
lwrist 20.1419
lhand -38.7718 -2.80166
lfingers 7.12502
lthumb -11.7837 26.8469
rfemur -32.0542 5.13035 27.7853
rtibia 42.8074
rfoot -17.9308 -11.2492
rtoes 8.78744
lfemur -0.699568 11.5927 -14.6874
ltibia 46.3508
lfoot 3.22032 -1.94435
ltoes -3.89734
416
root 44.4838 15.8928 12.6857 186.525 -47.9007 -179.408
lowerback 8.99677 -1.05485 2.50553
upperback 11.2826 -2.29633 -1.40648
thorax 6.70218 -1.3252 -2.85862
lowerneck 6.858 0.585247 1.05079
upperneck -8.78532 1.04544 2.20038
head -4.11446 0.341837 0.491616
rclavicle 3.24019e-014 1.59028e-014
rhumerus -22.0673 14.1905 -89.3065
rradius 69.0119
rwrist 1.55575
rhand -22.3504 -6.84524
rfingers 7.12502
rthumb 4.07042 -36.7861
lclavicle 3.24019e-014 1.59028e-014
lhumerus -19.5264 -2.65682 85.0769
lradius 51.1838
lwrist 20.177
lhand -38.576 -2.57756
lfingers 7.12502
lthumb -11.5948 27.0817
rfemur -32.0739 5.22132 27.7013
rtibia 42.8988
rfoot -18.1391 -11.3594
rtoes 8.78325
lfemur -1.42815 11.5741 -14.7538
ltibia 47.4166
lfoot 3.84301 -1.88578
ltoes -3.4751
